<?xml version="1.0" encoding="UTF-8"?>
<svg width="301px" height="90px" viewBox="0 0 301 90" version="1.1" xmlns="http://www.w3.org/2000/svg" xmlns:xlink="http://www.w3.org/1999/xlink">
    <!-- Generator: Sketch 53.2 (72643) - https://sketchapp.com -->
    <title>Group 78</title>
    <desc>Created with Sketch.</desc>
    <defs>
        <linearGradient x1="57.9%" y1="163.5%" x2="-5.4%" y2="-1.11022302e-14%" id="linearGradient-1">
            <stop stop-color="#F7E196" offset="0%"></stop>
            <stop stop-color="#EBC05D" offset="100%"></stop>
        </linearGradient>
    </defs>
    <g id="Page-1" stroke="none" stroke-width="1" fill="none" fill-rule="evenodd">
        <g id="Group-78" fill-rule="nonzero">
            <g id="ride" fill="#F4F3F4">
                <path d="M0,0 L30.8908928,0 C30.8908928,0 199.783492,42.2332258 249.791313,55.3282258 C264.94351,59.2969355 282.635247,64.0204839 300.244874,68.7672581 C300.316721,70.0519355 300.244874,89.7648387 300.244874,89.7648387 L0,89.7648387 L0,0 Z" id="Path"></path>
            </g>
            <g id="ride" transform="translate(0.000000, 28.000000)" fill="url(#linearGradient-1)">
                <path d="M0,0 L21.068,0 C21.068,0 136.255,29.094 170.361,38.115 C180.695,40.849 192.761,44.103 204.771,47.373 C204.82,48.258 204.771,61.838 204.771,61.838 L0,61.838 L0,0 Z" id="Path"></path>
            </g>
        </g>
    </g>
</svg>